PathFileType	4	(X/Y/Z)	/Users/itak/Documents/Research/Walk-IL/dataset/trc/00441_00167.trc
DataRate	CameraRate	NumFrames	NumMarkers	Units	OrigDataRate	OrigDataStartFrame	OrigNumFrames
100.000000	100.000000	4	53	mm	100.000000	195	520
Frame#	Time	RPSI			LPSI			L3			STRN			T10			C7			CLAV			RBAK			LBAK			LSHO			LUPA			LAEL			LAOL			LWTS			LWPS			LFRA			LIFD			LHPS			LHTS			RSHO			RUPA			RAEL			RAOL			RWTS			RWPS			RFRA			RIFD			RHTS			RHPS			RBHD			LFHD			RFHD			LBHD			LHIP			RHIP			RASI			LASI			LKNE			LTHI			LANK			LTIP			LTOE			LMT1			LMT5			LHEE			RKNE			RTHI			RANK			RTIP			RTOE			RMT1			RMT5			RHEE			
		X1	Y1	Z1	X2	Y2	Z2	X3	Y3	Z3	X4	Y4	Z4	X5	Y5	Z5	X6	Y6	Z6	X7	Y7	Z7	X8	Y8	Z8	X9	Y9	Z9	X10	Y10	Z10	X11	Y11	Z11	X12	Y12	Z12	X13	Y13	Z13	X14	Y14	Z14	X15	Y15	Z15	X16	Y16	Z16	X17	Y17	Z17	X18	Y18	Z18	X19	Y19	Z19	X20	Y20	Z20	X21	Y21	Z21	X22	Y22	Z22	X23	Y23	Z23	X24	Y24	Z24	X25	Y25	Z25	X26	Y26	Z26	X27	Y27	Z27	X28	Y28	Z28	X29	Y29	Z29	X30	Y30	Z30	X31	Y31	Z31	X32	Y32	Z32	X33	Y33	Z33	X34	Y34	Z34	X35	Y35	Z35	X36	Y36	Z36	X37	Y37	Z37	X38	Y38	Z38	X39	Y39	Z39	X40	Y40	Z40	X41	Y41	Z41	X42	Y42	Z42	X43	Y43	Z43	X44	Y44	Z44	X45	Y45	Z45	X46	Y46	Z46	X47	Y47	Z47	X48	Y48	Z48	X49	Y49	Z49	X50	Y50	Z50	X51	Y51	Z51	X52	Y52	Z52	X53	Y53	Z53	

196	1.95	-981.041748046875	915.244140625	-361.5141296386719	-916.77001953125	925.2053833007812	-487.3037719726562	-934.4171752929688	1024.633178710938	-409.68505859375	-662.34765625	1188.091430664062	-287.8011169433594	-931.1751098632812	1149.288818359375	-414.6976013183594	-850.659912109375	1406.258544921875	-356.6204528808594	-684.0872802734375	1306.308227539062	-297.3214416503906	-957.9444580078125	1293.18505859375	-307.8640747070312	-840.6363525390625	1367.34130859375	-464.0508117675781	-710.1802978515625	1379.675170898438	-489.3002319335938	-684.661376953125	1267.164428710938	-592.4440307617188	-669.3461303710938	1051.334350585938	-631.0155639648438	-771.9841918945312	1046.11181640625	-616.7897338867188	-647.5087280273438	837.2595825195312	-575.7901611328125	-658.8705444335938	831.730224609375	-648.7269287109375	-656.7340698242188	962.167236328125	-638.763671875	-667.8932495117188	672.1609497070312	-596.7852172851562	-663.1094970703125	750.942626953125	-653.1719970703125	-639.5930786132812	747.4536743164062	-584.845458984375	-860.228271484375	1364.930419921875	-184.8524322509766	-916.68408203125	1304.584838867188	-130.2445068359375	-976.5613403320312	1022.335998535156	-98.22256469726562	-1008.00439453125	1016.493469238281	-158.4951324462891	-906.7950439453125	802.7726440429688	-113.0977554321289	-992.0049438476562	802.6947021484375	-89.9825439453125	-988.142333984375	964.5895385742188	-92.45420837402344	-942.3380126953125	647.7037963867188	-122.3092269897461	-919.7452392578125	702.1774291992188	-106.9853973388672	-993.740478515625	714.037109375	-94.53227996826172	-817.7626342773438	1592.956176757812	-249.5672454833984	-623.4825439453125	1610.791259765625	-318.6890563964844	-688.1080322265625	1613.22021484375	-205.0747528076172	-743.635498046875	1594.696411132812	-411.3556213378906	-756.3087158203125	815.5811157226562	-543.45849609375	-921.6812133789062	823.4630737304688	-175.0650787353516	-807.218505859375	868.6376953125	-204.5480041503906	-692.5582885742188	842.676513671875	-431.3027038574219	-864.9710083007812	406.1513977050781	-533.154541015625	-795.6823120117188	549.9976806640625	-528.1055297851562	-1063.672485351562	38.55354309082031	-609.0098876953125	-923.6426391601562	263.1391296386719	-563.8189697265625	-909.9092407226562	43.98771286010742	-432.0497131347656	-986.2271728515625	52.32787704467773	-447.7394104003906	-928.5836181640625	43.53493118286133	-547.036865234375	-1135.6162109375	52.16223907470703	-596.1760864257812	-745.4723510742188	465.450439453125	-113.3103103637695	-845.5142822265625	710.6157836914062	-129.4476318359375	-641.1827392578125	46.90530776977539	-53.6842041015625	-713.49072265625	330.5068054199219	-76.7957763671875	-452.8734741210938	134.0289611816406	-1.313914775848389	-485.0317993164062	111.7569808959961	-62.69974899291992	-544.881591796875	89.52252197265625	22.41667366027832	-675.119384765625	24.4268798828125	-123.46142578125	
197	1.96	-974.1238403320312	913.3785400390625	-355.6162414550781	-910.1749267578125	923.805419921875	-481.5850830078125	-927.4684448242188	1022.891052246094	-403.8352661132812	-654.9506225585938	1185.980834960938	-281.69970703125	-923.9739379882812	1147.5234375	-408.5270080566406	-843.476318359375	1404.46435546875	-350.0779113769531	-676.6997680664062	1304.239501953125	-290.980712890625	-950.7077026367188	1291.242919921875	-301.4434814453125	-833.5250244140625	1365.69482421875	-457.620849609375	-703.0108032226562	1377.93896484375	-482.8466491699219	-677.9475708007812	1265.524780273438	-586.2149047851562	-663.2609252929688	1050.0703125	-625.8422241210938	-765.710693359375	1044.826416015625	-610.978271484375	-641.0798950195312	835.967041015625	-571.0813598632812	-652.873046875	830.5201416015625	-643.9443359375	-650.6965942382812	960.9381713867188	-633.8125610351562	-661.587646484375	670.9231567382812	-592.1761474609375	-657.160400390625	749.761474609375	-648.5103759765625	-633.3822021484375	746.0949096679688	-580.31689453125	-852.9099731445312	1362.87353515625	-178.3282623291016	-909.360595703125	1302.420166015625	-123.8256988525391	-969.3402709960938	1020.139831542969	-92.10385131835938	-1000.884704589844	1014.361572265625	-152.3770294189453	-899.435546875	800.6845092773438	-107.5446929931641	-984.5923461914062	800.5128173828125	-84.20891571044922	-980.8702392578125	962.3707275390625	-86.421142578125	-934.9176635742188	645.5833740234375	-116.8214263916016	-912.3278198242188	700.0848999023438	-101.4803237915039	-986.2849731445312	711.8569946289062	-88.84683990478516	-811.1830444335938	1591.067749023438	-243.3031616210938	-617.0887451171875	1609.430297851562	-312.7464904785156	-681.5324096679688	1611.9072265625	-199.0457153320312	-737.2137451171875	1592.7099609375	-405.2245788574219	-750.146484375	814.4135131835938	-538.5809936523438	-914.1782836914062	821.129638671875	-169.5089569091797	-799.8880615234375	866.41455078125	-199.1156158447266	-685.8849487304688	840.90869140625	-426.4443054199219	-860.7481689453125	405.6878356933594	-530.7171020507812	-790.5040893554688	549.123291015625	-524.7217407226562	-1063.326171875	40.08847045898438	-609.0501708984375	-920.9747314453125	263.4712219238281	-562.5970458984375	-909.7705078125	43.86484909057617	-432.0343017578125	-985.8733520507812	52.62277221679688	-447.8570251464844	-928.3304443359375	43.39644622802734	-547.138427734375	-1135.100219726562	54.97324371337891	-596.2857666015625	-737.8607177734375	462.9881896972656	-109.0552368164062	-838.5873413085938	707.8883056640625	-123.438720703125	-638.90771484375	44.05929183959961	-53.86185455322266	-706.9347534179688	327.4845275878906	-74.08111572265625	-449.1786499023438	126.6202774047852	0.2611664235591888	-481.32177734375	105.5583953857422	-61.59975433349609	-542.0027465820312	83.63739776611328	22.94114685058594	-672.8370361328125	23.03931427001953	-124.1358108520508	
198	1.97	-967.1072998046875	911.7489013671875	-349.5027465820312	-903.4523315429688	922.6175537109375	-475.661376953125	-920.3323974609375	1021.310729980469	-397.7724914550781	-647.3829345703125	1184.019775390625	-275.378662109375	-916.5629272460938	1145.923461914062	-402.1568908691406	-836.1414184570312	1402.848876953125	-343.3595886230469	-669.1580200195312	1302.321044921875	-284.4254760742188	-943.3171997070312	1289.45947265625	-294.8670349121094	-826.2545776367188	1364.225708007812	-451.0032348632812	-695.652587890625	1376.353271484375	-476.1959838867188	-671.0968017578125	1264.034790039062	-579.7743530273438	-657.1007080078125	1048.994140625	-620.5448608398438	-759.4315185546875	1043.799438476562	-605.03173828125	-634.5194091796875	834.8975830078125	-566.1878662109375	-646.7651977539062	829.49755859375	-638.9768676757812	-644.5841064453125	959.8948974609375	-628.7230224609375	-655.1161499023438	669.9014282226562	-587.333251953125	-651.0703735351562	748.7719116210938	-643.6217041015625	-627.1605224609375	744.971923828125	-575.6294555664062	-845.4619140625	1360.983154296875	-171.6272888183594	-901.9254150390625	1300.4013671875	-117.2340927124023	-961.9332885742188	1018.068542480469	-85.79698181152344	-993.5742797851562	1012.335998535156	-146.0910186767578	-891.7567749023438	798.7924194335938	-101.8053131103516	-976.8651733398438	798.4684448242188	-78.23216247558594	-973.3765258789062	960.275146484375	-80.20440673828125	-927.0445556640625	643.6317138671875	-111.0634994506836	-904.5026245117188	698.181884765625	-95.72477722167969	-978.4329223632812	709.8173217773438	-82.92228698730469	-804.4930419921875	1589.381103515625	-236.8324584960938	-610.5836181640625	1608.2705078125	-306.6253662109375	-674.8490600585938	1610.794677734375	-192.8424987792969	-730.685546875	1590.913696289062	-398.9184875488281	-743.8892211914062	813.3977661132812	-533.501220703125	-906.525390625	819.0209350585938	-163.7398376464844	-792.4315795898438	864.400390625	-193.4907531738281	-679.1248168945312	839.239501953125	-421.3809204101562	-856.3760986328125	405.411865234375	-528.2145385742188	-785.187255859375	548.4159545898438	-521.2595825195312	-1062.831420898438	41.87954330444336	-609.1497802734375	-918.1494140625	264.0133361816406	-561.3846435546875	-909.5989379882812	43.7364616394043	-432.0286560058594	-985.4578247070312	52.97086334228516	-447.9847106933594	-928.0270385742188	43.22684860229492	-547.2257690429688	-1134.407348632812	58.12006378173828	-596.4597778320312	-729.94677734375	460.8532409667969	-104.6114196777344	-831.4556274414062	705.4054565429688	-117.2403259277344	-637.0806274414062	41.73131561279297	-54.11515045166016	-700.0822143554688	324.7647399902344	-71.26320648193359	-445.3641662597656	118.3965759277344	1.361741900444031	-477.7444763183594	98.81645202636719	-60.90443420410156	-539.1675415039062	77.57072448730469	23.20564842224121	-671.22607421875	22.42538261413574	-124.8390197753906	
199	1.98	-959.9920654296875	910.4395751953125	-343.2217407226562	-896.5802001953125	921.6891479492188	-469.5598449707031	-912.9957275390625	1019.954772949219	-391.5137329101562	-639.6498413085938	1182.262939453125	-268.8338623046875	-908.95166015625	1144.556884765625	-395.5999755859375	-828.65673828125	1401.458129882812	-336.47119140625	-661.46630859375	1300.605346679688	-277.659423828125	-935.7774047851562	1287.88818359375	-288.1303405761719	-818.8269653320312	1362.982543945312	-444.1961975097656	-688.1131591796875	1374.96875	-469.3570251464844	-664.1287841796875	1262.755615234375	-573.13671875	-650.8629150390625	1048.1591796875	-615.1216430664062	-753.1516723632812	1043.091796875	-598.9605712890625	-627.8319091796875	834.0968017578125	-561.1080322265625	-640.5355834960938	828.7142944335938	-633.8262939453125	-638.3890380859375	959.0903930664062	-623.4939575195312	-648.4707641601562	669.1416625976562	-582.26708984375	-644.8258056640625	748.0234985351562	-638.5101318359375	-620.8353881835938	744.1405029296875	-570.75439453125	-837.8797607421875	1359.303344726562	-164.7529296875	-894.3746337890625	1298.574951171875	-110.4715957641602	-954.3251953125	1016.166564941406	-79.31064605712891	-986.0570678710938	1010.468139648438	-139.6400146484375	-883.769287109375	797.1314697265625	-95.87720489501953	-968.83349609375	796.608642578125	-72.06449890136719	-965.652587890625	958.3468627929688	-73.81380462646484	-918.74951171875	641.89404296875	-105.040412902832	-896.2830810546875	696.5059814453125	-89.73264312744141	-970.2050170898438	707.9656372070312	-76.77226257324219	-797.6834106445312	1587.939575195312	-230.1614379882812	-603.9664306640625	1607.3505859375	-300.326904296875	-668.0540161132812	1609.913940429688	-186.4657592773438	-724.0559692382812	1589.35498046875	-392.4340209960938	-737.4927978515625	812.5403442382812	-528.2058715820312	-898.7704467773438	817.2335205078125	-157.7921752929688	-784.8770751953125	862.6937255859375	-187.6883850097656	-672.2615356445312	837.709228515625	-416.0911865234375	-851.806640625	405.3240051269531	-525.6034545898438	-779.703369140625	547.880615234375	-517.6771240234375	-1062.16357421875	43.95165634155273	-609.3112182617188	-915.1185913085938	264.767578125	-560.1502685546875	-909.4019165039062	43.6082763671875	-432.0326843261719	-984.981201171875	53.37186050415039	-448.1178588867188	-927.6791381835938	43.02729415893555	-547.2880249023438	-1133.501342773438	61.64067077636719	-596.7173461914062	-721.708984375	459.1738586425781	-99.95426177978516	-824.1478881835938	703.2672729492188	-110.8971633911133	-635.4288330078125	40.07017135620117	-54.283935546875	-692.8177490234375	322.5227661132812	-68.21884155273438	-441.2782287597656	109.6650543212891	2.112643957138062	-474.1448974609375	91.81378936767578	-60.45779418945312	-536.1881713867188	71.62506103515625	23.39714431762695	-670.0140380859375	22.64849662780762	-125.3689880371094	
